<svg width="613" height="555" viewBox="0 0 613 555" fill="none" xmlns="http://www.w3.org/2000/svg">
<path d="M13.7566 368.085C11.5648 361.55 9.63075 354.885 7.96671 348.099L8.93794 347.861C8.11703 344.512 7.36201 341.134 6.67441 337.727C5.9868 334.32 5.37261 330.914 4.83074 327.51L3.84317 327.667C2.74487 320.766 1.94287 313.873 1.42854 307L2.42574 306.925C1.90724 299.995 1.68248 293.086 1.74269 286.207L0.742737 286.198C0.803695 279.235 1.15562 272.303 1.78954 265.415L2.78535 265.507C3.4201 258.61 4.3388 251.757 5.53246 244.959L4.5475 244.786C5.74848 237.947 7.22675 231.165 8.97314 224.451L9.94094 224.703C11.6803 218.016 13.6868 211.398 15.9514 204.86L15.0065 204.532C17.2742 197.985 19.7995 191.519 22.5736 185.145L23.4906 185.544C26.2437 179.219 29.2428 172.984 32.4791 166.854L31.5947 166.387C34.8244 160.269 38.2892 154.253 41.9805 148.352L42.8283 148.882C46.4836 143.039 50.3617 137.309 54.4543 131.702L53.6466 131.112C57.7218 125.529 62.0088 120.069 66.4992 114.743L67.2637 115.388C71.7035 110.122 76.3429 104.987 81.1737 99.995L80.4551 99.2996C85.2592 94.3349 90.2519 89.5107 95.4251 84.8378L96.0954 85.5799C101.204 80.9656 106.489 76.4993 111.943 72.1912L111.323 71.4064C116.743 67.1252 122.329 62.9998 128.075 59.0405L128.642 59.8639C134.306 55.9607 140.124 52.2194 146.09 48.6496L145.577 47.7915C151.501 44.2467 157.571 40.8707 163.778 37.673L164.236 38.562C170.347 35.4137 176.593 32.4388 182.966 29.6465L182.564 28.7305C188.88 25.9633 195.32 23.3747 201.878 20.9737L202.222 21.9127C208.681 19.5482 215.254 17.3661 221.936 15.375L221.65 14.4166C228.247 12.4508 234.95 10.6707 241.751 9.08422L241.979 10.0581C245.342 9.27363 248.729 8.53673 252.14 7.84829C255.552 7.15984 258.96 6.52524 262.364 5.94395L262.196 4.9582C269.08 3.78251 275.948 2.82384 282.791 2.07722L282.9 3.07132C289.831 2.31505 296.736 1.77692 303.606 1.45149L303.559 0.452588C310.535 0.122144 317.475 0.0103649 324.37 0.11163L324.355 1.11153C331.312 1.21369 338.222 1.53352 345.076 2.06506L345.154 1.06809C352.115 1.60803 359.019 2.36576 365.855 3.33537L365.714 4.32547C372.598 5.3019 379.412 6.49371 386.146 7.8948L386.35 6.91572C393.181 8.33689 399.93 9.97277 406.586 11.8168L406.319 12.7805C413.017 14.6361 419.621 16.7032 426.119 18.975L426.449 18.0311C433.029 20.3318 439.502 22.842 445.856 25.5549L445.463 26.4745C451.852 29.2025 458.12 32.1359 464.254 35.2678L464.709 34.3772C470.914 37.5448 476.983 40.9148 482.904 44.4802L482.388 45.3369C488.335 48.9174 494.132 52.6954 499.768 56.6636L500.343 55.846C506.034 59.8533 511.561 64.0542 516.911 68.441L516.277 69.2142C521.638 73.61 526.82 78.193 531.811 82.9556L532.501 82.2322C537.53 87.0311 542.366 92.0119 546.995 97.167L546.251 97.8352C550.874 102.983 555.291 108.306 559.487 113.794L560.282 113.187C564.495 118.698 568.488 124.376 572.248 130.214L571.407 130.755C575.143 136.558 578.648 142.518 581.908 148.629L582.79 148.158C586.046 154.261 589.059 160.514 591.816 166.908L590.897 167.304C593.621 173.621 596.094 180.078 598.303 186.666L599.251 186.348C601.443 192.883 603.377 199.547 605.041 206.334L604.07 206.572C604.891 209.92 605.646 213.298 606.333 216.705C607.021 220.112 607.635 223.519 608.177 226.923L609.165 226.766C610.263 233.666 611.065 240.559 611.579 247.433L610.582 247.508C611.101 254.437 611.325 261.347 611.265 268.226L612.265 268.235C612.204 275.198 611.852 282.129 611.218 289.017L610.223 288.926C609.588 295.823 608.669 302.676 607.475 309.473L608.46 309.646C607.259 316.485 605.781 323.268 604.035 329.981L603.067 329.729C601.328 336.416 599.321 343.035 597.056 349.573L598.001 349.9C595.734 356.447 593.208 362.914 590.434 369.287L589.517 368.888C586.764 375.214 583.765 381.448 580.529 387.579L581.413 388.046C578.183 394.164 574.719 400.179 571.027 406.08L570.18 405.55C566.524 411.393 562.646 417.124 558.554 422.731L559.361 423.32C555.286 428.903 550.999 434.363 546.509 439.689L545.744 439.045C541.304 444.311 536.665 449.445 531.834 454.438L532.553 455.133C527.749 460.098 522.756 464.922 517.583 469.595L516.912 468.853C511.804 473.467 506.519 477.933 501.065 482.241L501.685 483.026C496.265 487.307 490.678 491.433 484.933 495.392L484.366 494.569C478.702 498.472 472.884 502.213 466.918 505.783L467.431 506.641C461.506 510.186 455.437 513.562 449.23 516.76L448.772 515.871C442.66 519.019 436.415 521.994 430.042 524.786L430.443 525.702C424.128 528.469 417.688 531.058 411.13 533.459L410.786 532.52C404.327 534.884 397.754 537.066 391.072 539.058L391.357 540.016C384.761 541.982 378.058 543.762 371.256 545.348L371.029 544.374C367.666 545.159 364.279 545.896 360.867 546.584C357.456 547.273 354.048 547.907 350.644 548.489L350.812 549.474C343.928 550.65 337.059 551.609 330.216 552.355L330.108 551.361C323.177 552.117 316.272 552.656 309.402 552.981L309.449 553.98C302.473 554.31 295.533 554.422 288.638 554.321L288.653 553.321C281.696 553.219 274.786 552.899 267.932 552.367L267.854 553.364C260.893 552.825 253.989 552.067 247.153 551.097L247.294 550.107C240.41 549.131 233.596 547.939 226.862 546.538L226.658 547.517C219.827 546.096 213.078 544.46 206.422 542.616L206.689 541.652C199.991 539.796 193.387 537.729 186.889 535.458L186.559 536.401C179.978 534.101 173.506 531.591 167.152 528.878L167.545 527.958C161.156 525.23 154.888 522.297 148.753 519.165L148.299 520.055C142.094 516.888 136.025 513.518 130.104 509.952L130.619 509.096C124.673 505.515 118.875 501.737 113.24 497.769L112.664 498.587C106.973 494.579 101.447 490.378 96.0969 485.992L96.731 485.218C91.3703 480.823 86.1881 476.24 81.1972 471.477L80.5068 472.2C75.4778 467.401 70.6421 462.421 66.0128 457.266L66.7568 456.597C62.1337 451.449 57.7173 446.127 53.5207 440.638L52.7263 441.246C48.5127 435.735 44.5197 430.056 40.7602 424.218L41.601 423.677C37.8645 417.875 34.3598 411.914 31.0998 405.803L30.2175 406.274C26.9618 400.171 23.9491 393.919 21.1922 387.524L22.1105 387.128C19.3871 380.811 16.9143 374.355 14.7047 367.767L13.7566 368.085Z" stroke="#3C8BD9" stroke-width="2" stroke-dasharray="20 20"/>
</svg>
