<svg width="364" height="479" viewBox="0 0 364 479" fill="none" xmlns="http://www.w3.org/2000/svg">
<path d="M14.759 304.936C12.779 298.389 10.9868 291.714 9.39366 284.92L10.3672 284.692C9.58437 281.353 8.84971 277.986 8.16461 274.592C7.47952 271.197 6.85076 267.809 6.27758 264.428L5.29165 264.595C4.12523 257.715 3.18821 250.867 2.47415 244.065L3.46866 243.961C2.74265 237.045 2.24787 230.176 1.97743 223.369L0.978233 223.409C0.70132 216.439 0.658904 209.533 0.84382 202.708L1.84345 202.735C2.03207 195.773 2.45787 188.896 3.11307 182.119L2.11769 182.023C2.79035 175.066 3.70404 168.214 4.85037 161.485L5.83619 161.653C7.00648 154.784 8.42004 148.044 10.0678 141.453L9.09765 141.21C10.7948 134.421 12.7398 127.789 14.9227 121.333L15.87 121.654C18.1041 115.047 20.5881 108.628 23.3115 102.418L22.3957 102.017C25.2095 95.601 28.2781 89.407 31.5901 83.4593L32.4638 83.9458C35.8558 77.8545 39.5035 72.024 43.3943 66.4809L42.5758 65.9064C46.5973 60.177 50.8782 54.7514 55.4048 49.6588L56.1522 50.3231C60.767 45.1312 65.6373 40.2889 70.7484 35.8267L70.0907 35.0734C75.3392 30.4914 80.8414 26.3063 86.582 22.5513L87.1294 23.3882C92.8866 19.6224 98.8838 16.2932 105.105 13.434L104.688 12.5254C110.939 9.6526 117.416 7.25034 124.103 5.35254L124.376 6.31455C127.657 5.38332 130.989 4.57445 134.37 3.89202C137.752 3.2096 141.137 2.66278 144.523 2.24853L144.401 1.25593C151.301 0.411724 158.202 0.113941 165.078 0.337437L165.046 1.33691C171.889 1.55935 178.708 2.30204 185.475 3.54018L185.655 2.55652C192.403 3.7911 199.097 5.51463 205.712 7.70249L205.398 8.65191C211.84 10.7825 218.207 13.3569 224.474 16.3526L224.905 15.4504C231.053 18.3888 237.103 21.7294 243.032 25.4507L242.5 26.2976C248.236 29.8979 253.86 33.8572 259.349 38.1562L259.965 37.3689C265.325 41.5666 270.556 46.0856 275.637 50.9078L274.949 51.6332C279.867 56.3005 284.647 61.2538 289.268 66.4767L290.017 65.814C294.533 70.9175 298.898 76.2766 303.095 81.8759L302.295 82.4757C306.37 87.9118 310.287 93.5759 314.03 99.4537L314.874 98.9165C318.54 104.674 322.039 110.635 325.358 116.787L324.478 117.262C327.71 123.254 330.77 129.428 333.644 135.772L334.554 135.359C337.372 141.578 340.011 147.96 342.459 154.492L341.523 154.843C343.913 161.221 346.121 167.744 348.134 174.401L349.092 174.111C351.072 180.658 352.864 187.333 354.457 194.127L353.483 194.355C354.266 197.694 355.001 201.061 355.686 204.455C356.371 207.85 357 211.239 357.573 214.619L358.559 214.452C359.725 221.332 360.662 228.18 361.377 234.982L360.382 235.087C361.108 242.003 361.603 248.871 361.873 255.678L362.872 255.638C363.149 262.608 363.192 269.514 363.007 276.339L362.007 276.312C361.819 283.274 361.393 290.151 360.738 296.928L361.733 297.024C361.06 303.981 360.147 310.833 359 317.562L358.014 317.394C356.844 324.264 355.431 331.003 353.783 337.595L354.753 337.837C353.056 344.626 351.111 351.259 348.928 357.714L347.981 357.394C345.747 364 343.263 370.419 340.539 376.629L341.455 377.03C338.641 383.446 335.573 389.64 332.261 395.588L331.387 395.101C327.995 401.193 324.347 407.023 320.456 412.566L321.275 413.141C317.253 418.87 312.972 424.296 308.446 429.388L307.698 428.724C303.084 433.916 298.213 438.758 293.102 443.22L293.76 443.974C288.511 448.556 283.009 452.741 277.269 456.496L276.721 455.659C270.964 459.425 264.967 462.754 258.745 465.613L259.163 466.522C252.912 469.395 246.435 471.797 239.748 473.695L239.475 472.733C236.194 473.664 232.862 474.473 229.48 475.155C226.099 475.838 222.714 476.384 219.328 476.799L219.45 477.791C212.55 478.635 205.648 478.933 198.772 478.71L198.805 477.71C191.962 477.488 185.142 476.745 178.375 475.507L178.195 476.491C171.448 475.256 164.753 473.533 158.138 471.345L158.452 470.395C152.011 468.265 145.644 465.69 139.376 462.695L138.945 463.597C132.798 460.658 126.748 457.318 120.819 453.596L121.35 452.749C115.614 449.149 109.991 445.19 104.502 440.891L103.885 441.678C98.5258 437.481 93.2951 432.962 88.2133 428.139L88.9017 427.414C83.9832 422.747 79.204 417.793 74.5825 412.57L73.8336 413.233C69.3178 408.13 64.9528 402.771 60.7554 397.171L61.5555 396.571C57.4805 391.135 53.5636 385.471 49.8207 379.593L48.9771 380.131C45.3108 374.373 41.8112 368.412 38.4928 362.26L39.373 361.785C36.1408 355.793 33.081 349.619 30.2071 343.276L29.2962 343.688C26.4786 337.469 23.8395 331.087 21.3914 324.555L22.3278 324.204C19.9372 317.826 17.7294 311.303 15.7162 304.646L14.759 304.936Z" stroke="#34A852" stroke-width="2" stroke-dasharray="20 20"/>
</svg>
