<svg width="232" height="61" viewBox="0 0 232 61" fill="none" xmlns="http://www.w3.org/2000/svg">
<g clip-path="url(#clip0_100_424)">
<path d="M7.96666 38.4599H18.215V44.3264H0V8.76074H7.96666V38.4599Z" fill="#1E1E1E"/>
<path d="M32.5631 16.6533H40.2397V44.3455H32.4471V41.6052C31.8863 43.4385 30.4167 44.3455 28.019 44.3455H26.6654C22.2954 44.3455 20.1104 42.2807 20.1104 38.1316V22.8672C20.1104 18.7375 22.2954 16.6533 26.6654 16.6533H28.019C30.5134 16.6533 32.041 17.6954 32.5631 19.7795V16.6533ZM29.4886 38.4597H30.7841C31.9057 38.4597 32.4664 37.8615 32.4664 36.665V24.2952C32.4664 23.0987 31.9057 22.5005 30.7841 22.5005H29.4886C28.4831 22.5005 27.9803 22.9637 27.9803 23.89V37.0317C27.9803 37.958 28.4831 38.4211 29.4886 38.4211V38.4597Z" fill="#1E1E1E"/>
<path d="M57.101 16.6533H58.4932C62.8633 16.6533 65.0483 18.7182 65.0483 22.8672V44.3455H57.1977V23.9285C57.1977 23.0023 56.6949 22.5391 55.6894 22.5391H54.3358C53.253 22.5391 52.7116 23.1373 52.7116 24.3338V44.3648H44.9189V16.6726H52.5956V19.7988C53.1176 17.7147 54.6066 16.6726 57.0816 16.6726L57.101 16.6533Z" fill="#1E1E1E"/>
<path d="M81.368 6.92773H89.1606V44.346H81.484V41.2197C80.9619 43.3039 79.4537 44.346 76.9399 44.346H75.5863C71.2163 44.346 69.0312 42.2811 69.0312 38.1321V22.8097C69.0312 18.7186 71.2163 16.6538 75.5863 16.6538H76.9399C79.3376 16.6538 80.8072 17.5608 81.368 19.394V6.92773ZM78.3901 38.4795H79.6857C80.8072 38.4795 81.368 37.8812 81.368 36.6848V24.315C81.368 23.1185 80.8072 22.5203 79.6857 22.5203H78.3901C77.8294 22.5203 77.4427 22.6168 77.2106 22.829C76.9786 23.0413 76.8819 23.3887 76.8819 23.929V37.0707C76.8819 37.997 77.3846 38.4602 78.3901 38.4602V38.4795Z" fill="#1E1E1E"/>
<path d="M100.55 16.6533H106.873C111.61 16.6533 113.989 18.7182 113.989 22.8672V32.6511H100.936V37.3983C100.936 37.8808 101.052 38.2281 101.265 38.4404C101.497 38.6527 101.884 38.7492 102.445 38.7492H104.958C105.48 38.7492 105.848 38.6334 106.08 38.4211C106.312 38.2088 106.409 37.8229 106.409 37.3018V35.4493H113.911V38.1316C113.911 42.2807 111.533 44.3455 106.795 44.3455H100.511C95.8122 44.3455 93.4531 42.2807 93.4531 38.1316V22.8672C93.4531 18.7375 95.8122 16.6533 100.511 16.6533H100.55ZM100.936 28.0583H106.486V23.5812C106.486 23.0987 106.37 22.7514 106.157 22.5391C105.925 22.3268 105.558 22.2304 105.036 22.2304H102.464C101.903 22.2304 101.516 22.3268 101.284 22.5391C101.052 22.7514 100.956 23.0987 100.956 23.5812V28.0583H100.936Z" fill="#1E1E1E"/>
<path d="M131.024 16.4805H131.972V23.254H129.226C126.867 23.254 125.687 24.5662 125.687 27.1714V44.3463H117.895V16.6541H125.571V20.6295C125.861 19.3944 126.48 18.4102 127.427 17.6383C128.356 16.8664 129.554 16.4998 131.005 16.4998L131.024 16.4805Z" fill="#1E1E1E"/>
<path d="M140.325 15.2451L155.62 30.4903L140.325 45.7355H155.62L170.896 30.4903L155.62 15.2451H140.325Z" fill="#7966FE"/>
<path d="M179.017 23.2151L186.172 15.2452L170.896 0H155.62L179.017 23.2151Z" fill="#7966FE"/>
<path d="M216.724 0L186.172 30.4904L216.724 61H232L201.448 30.4904L232 0H216.724Z" fill="#7966FE"/>
<path d="M178.534 38.1133L155.62 61.0003H170.896L186.172 45.7359L178.534 38.1133Z" fill="#7966FE"/>
</g>
<defs>
<clipPath id="clip0_100_424">
<rect width="232" height="61" fill="white"/>
</clipPath>
</defs>
</svg>
