<svg xmlns="http://www.w3.org/2000/svg" xmlns:xlink="http://www.w3.org/1999/xlink" width="3840" height="1526" fill="none" xmlns:v="https://vecta.io/nano"><style><![CDATA[.B{opacity:.52}.C{fill:#f4e2b3}.D{fill:#e8a94f}.E{opacity:.49}.F{fill:#4a9480}.G{fill:#3a7f7f}.H{fill:#c1a580}.I{opacity:.3}.J{fill:#7f6d85}.K{fill:#e1ded7}.L{fill:#ffe0af}.M{fill:#2f6b74}]]></style><g opacity=".5"><path d="M3263.23 708.735l-31.55-211.543-156.12-28.218-32.84 44.409-9.26-48.618-25.67-1.435-22.99 50.053-98.72-239.252-54.35-33.769-70.18 16.329h-54.91l-86.41-117.775-116.94-117.868L2417.15 0l-64.62 95.432-19.66 33.862-28.82 78.455-37.65 53.938-21.51-25.951-12.31-121.707h-33.86l-46.17 257.153-43.06-14.247-36.92 27.431-64.02 129.017 79.93 111.808-162.41 6.661-232.96-106.627-86.14 36.36-20.49-36.36-49.22 55.048-34.88 61.664-13.41-37.239-33.77-93.859-24.61 8.234-32.8 103.481-47.18 26.877-32.85 17.301-249.19-68.556-132.074-36.314v-83.821L792.723 277.184l-77.947 14.202-73.829-115.833-12.305-39.274-25.443-36.915s-75.078-8.974-85.348 0c-10.223 8.975-98.439 206.362-98.439 206.362l-38.95 36.961-51.301-12.305-173.795-91.038-70.175 34.741-22.065 97.051v97.792L-46 641.983v246.561l1796.56-72.026 365.54-152.655 137.99 193.039 1009.14-148.167z" fill="url(#A)"/><g style="mix-blend-mode:soft-light" class="B C"><path d="M2232.58 114.031h-33.86l16.93 297.353 16.93-40.199V262.708l12.31-26.969-12.31-121.708z"/></g><g style="mix-blend-mode:soft-light" class="B C"><path d="M2706.64 256.691l-41.21 62.728-84.29-34.001-22.29 199.747-30.44-46.676s2.59-90.667-1.39-105.887c-3.93-15.265-115.97-157.003-115.97-157.003l30.07-50.468 24.01-58.055L2417.15 0l86.14 21.048 116.94 117.868 86.41 117.775z"/></g><g style="mix-blend-mode:soft-light" class="B C"><path d="M1693.11 525.269l-54.91 55.048-46.67 7.54-54.27-7.54 49.22-55.048 20.5 36.359 86.13-36.359z"/></g><g style="mix-blend-mode:soft-light" class="B C"><path d="M1488.96 604.745l-36.59-8.234v45.473l-20.63 6.291 23.46-137.389 33.76 93.859z"/></g><g style="mix-blend-mode:soft-light" class="B C"><path d="M245.668 330.197l52.18 48.757-52.18 40.477-106.211-68.51-19.475-57.454 35.389-54.076 173.795 91.037 51.301 12.305 66.382 68.649-201.181-81.185z"/></g><g style="mix-blend-mode:soft-light" class="B C"><path d="M660.981 305.818l34.093 93.397-14.711 147.104-109.957-189.292-52.551-68.278 30.3-81-30.3-108.339c10.27-8.974 85.348 0 85.348 0l25.443 36.915 12.305 39.274 73.829 115.833-53.799 14.386z"/></g><g style="mix-blend-mode:soft-light" class="B C"><path d="M1068.56 598.219l-72.718 24.378-59.351 26.877-92.055-26.877-59.674-238.234 7.956-27.431 30.763 27.431-30.763-107.135 143.773 200.856v83.822l132.069 36.313z"/></g><g style="mix-blend-mode:soft-light" class="B C"><path d="M2390.46 216.215l-21.56 8.974-35.89 403.934 57.45 13.23V216.215z"/></g><g style="mix-blend-mode:soft-light" class="B C"><path d="M2426.37 301.101l6.43 315.856 25.9 1.481-16.19-317.337h-16.14z"/></g><g style="mix-blend-mode:soft-light" class="B C"><path d="M2886.09 274.129l-61.16 76.744-71.42 48.34 110.83-28.033v27.987l-188.04 42.096 209.79-2.776-188.65 63.699v21.002l287.36-9.807-98.71-239.252z"/></g><g style="mix-blend-mode:soft-light" class="B C"><path d="M3139.35 480.493l-28.96 55.141-55.83 32.474v26.923l88.58-34.741 33.68 19.891 54.86-82.988-92.33-16.7z"/></g><g style="mix-blend-mode:soft-light" class="B C"><path d="M692.06 715.582c3.608-5.69 48.479-246.653 48.479-246.653h11.843l-.509 161.953 11.981-12.49 20.909-72.118 34.741 183.972-127.49-14.664h.046z"/></g><g style="mix-blend-mode:soft-light" class="B C"><path d="M323.238 399.17l-17.162 20.261 199.053 82.758 12.721-27.432-194.612-75.587z"/></g><path d="M2864.34 685.513l-28.36-5.135c8.75 5.366 18.46 6.522 28.36 5.135z" fill="#df884d"/><path d="M3886.02 497.469v212.236c-31.92 8.974-64.76 15.127-97.61 19.105-80.9 9.807-162.69 7.309-244.15 6.476-163.9-1.665-328.44 3.609-491.23-15.681l-188.69-34.093c15.59-2.174 31.69-10.779 45.34-19.475 84.7-53.892 165.84-113.427 242.63-178.098 41.49-34.925 83.59-72.349 133.92-90.945 6.24-2.313 12.62-4.348 19.15-6.06 69.34-17.948 141.83 4.58 210.8 23.916 121.66 34.093 245.68 58.657 369.84 82.619z" fill="url(#B)"/><g style="mix-blend-mode:soft-light" opacity=".96" class="L"><path d="M3886.01 497.469V631.99c-63.56-5.181-127.72-13.646-191-8.974-48.62 3.608-96.4 14.941-145.07 18.411-48.62 3.423-100.01-1.897-140.76-28.681-22.21-14.525-40.67-35.064-65.09-45.38-14.57-6.106-30.62-8.373-44.73-15.497-2.18-1.11-4.44-2.451-5.55-4.625-1.44-2.73-.79-6.014.27-8.882 4.86-13.693 16.66-23.453 26.37-34.324 9.67-10.825 17.9-25.582 13.28-39.367-6.85-20.539-36.5-24.61-46.17-43.992-3.7-7.309-3.75-15.775-1.34-23.685 6.24-2.313 12.63-4.348 19.15-6.06 69.34-17.948 141.83 4.58 210.8 23.916 121.66 34.093 245.68 58.657 369.84 82.619z"/></g><path d="M1509.69 908.528c-185.4 80.213-390.19 107.732-592.205 106.022s-402.592-31.73-602.246-62.539c-94.091-14.479-188.367-29.236-280.283-53.984-40.893-11.01-11.102 19.105-40.893-11.01 26.506-8.696-17.578-55.418 10.362-57.176l49.682-3.284c99.549-9.206 194.658-47.601 280.515-98.717 68.047-40.523 135.4-90.668 211.82-105.239 10.593-2.036 21.371-3.377 32.335-3.886 9.252-.463 18.411-.324 27.478.277 84.515 6.014 161.814 56.159 240.547 91.501 117.313 52.689 244.108 73.505 373.218 80.352 92.93 4.903 187.07 2.59 279.64-.324l10.03 118.007z" fill="url(#C)"/><g style="mix-blend-mode:soft-light" opacity=".96" class="L"><path d="M1220.01 790.843c-9.43 37.424-40.66 67.908-76.19 84.469-39.45 18.411-83.82 22.621-127.21 25.905-47.182 3.562-94.829 6.384-141.643-.647-21.927-3.331-44.316-9.16-61.571-23.084-17.208-13.97-28.079-37.747-21.371-58.887 1.896-5.968 5.134-11.889 4.533-18.134-.555-5.273-3.747-9.853-7.309-13.831-40.523-45.242-165.792-24.703-183.001-59.675-16.792-32.473 86.921-21.603 85.256-43.298-4.858-28.172-80.306-42.373-85.256-64.624 84.515 6.014 161.814 56.159 240.547 91.5 117.313 52.69 244.105 73.506 373.215 80.352v-.046z"/></g><path d="M2984.8 722.012l-141.83 12.073-1097.17 93.49-57.46 4.903-644.52 54.91-128.465 10.917c12.259-1.619 62.728-12.629 134.015-30.855 187.76-48.109 519.67-146.641 675.56-257.478 70.69-50.283 126.29-85.209 173.48-107.737 13-6.153 25.3-11.426 37.14-15.774 80.08-29.699 137.25-19.105 213.95 13.137 107.32 45.149 427.94 144.56 686.85 197.017 52.83 10.686 103.12 19.475 148.45 25.397z" fill="url(#D)"/><g style="mix-blend-mode:soft-light" opacity=".96" class="L"><path d="M2842.97 734.085l-1097.17 93.49c-25.21-1.712-52.04-1.434-74.29-11.473-2.13-23.175 16.65-42.465 34.6-57.268 79.52-65.734 172.5-115.093 271.5-144.097 13.41-3.932 30.11-11.981 28.21-25.813-.69-5.134-4.02-9.436-7.54-13.183-19.24-20.724-46.21-32.104-69.94-47.509-10.92-7.077-21.6-15.866-29.93-25.997 13-6.153 25.3-11.426 37.15-15.774 80.07-29.699 137.25-19.105 213.94 13.137 107.32 45.149 427.95 144.56 686.86 197.017.88 10.455 2.36 20.817 4.9 31.086.51 2.128 1.11 4.256 1.71 6.384z"/></g><g class="F"><path d="M2302.15 568.659v17.903l-.14 33.491-.27 34.186-1.35 130.358c-.04 5.319-6.52 8.696-15.49 10.408-5.51 1.064-12.03 1.526-18.55 1.48-15.68-.185-31.32-3.469-33.4-8.373l4.02-80.953.79-16.977.93-20.539 1.29-31.549c1.48-42.049 1.02-82.156 1.57-122.725v-.231l.19-11.889.69-24.98a1148.46 1148.46 0 0 1 1.67-35.11c.92-14.757 1.94-29.699 6.71-43.669 2.31-7.031 6.19-14.248 12.49-17.856.83-.509 1.75-.925 2.72-1.295 1.21-.463 2.41-.694 3.61-.879 3.19-.416 6.48.139 9.53 1.295 5.37 2.082 10.18 6.291 13.14 11.241 5.32 8.928 6.15 19.799 6.66 30.115 1.81 35.619 2.64 75.448 3.01 116.11v1.249l.14 29.236.04-.047z"/><path d="M2273.71 653.172l-3.47 26.183-16.1 1.018c-5.69.277-11.38.416-17.12.462-10.59.093-21.18-.185-31.73-.879-18.69-1.203-39-4.302-49.73-13.646-8.14-7.032-9.02-16.098-9.48-24.656-1.02-17.81-1.53-35.62-1.44-53.43.05-17.948.79-36.359 11.06-53.197.55-.972 1.2-1.897 1.85-2.822 2.04-2.915 4.9-6.06 9.95-6.939 4.95-.833 10.26.971 13.09 3.516 2.86 2.544 3.74 5.736 4.3 8.743 5.64 28.911-18.18 85.163 31.13 96.033 8.42 1.851 16.19.74 23.59.925 11.24.324 21.1 17.671 34.05 18.643l.05.046zm65.96-204.599c-5.69 7.17-15.13 12.397-25.4 15.265-3.93 1.064-8.37 1.804-12.53 1.804-5.05 0-9.9-.971-13.6-3.469l-1.25-18.504c5.27-.277 10.31 3.285 15.12 1.712 8.01-2.591 15.27-20.585 21.56-25.165 1.43-1.018 2.87-2.082 4.72-2.683 5.83-1.85 12.07 2.452 14.48 6.939 4.16 7.771 2.59 16.977-3.1 24.147v-.046z"/></g><g class="G"><path d="M2266.4 796.44c-15.68-.139-31.32-2.683-33.4-6.477l4.02-109.171c-10.59.093-21.18-.185-31.73-.879-18.69-1.203-39-4.302-49.73-13.646-8.14-7.032-9.02-16.099-9.48-24.656-1.02-17.81-1.53-35.62-1.44-53.43.05-17.948.79-36.359 11.06-53.198.28.093.6.278.92.463 14.62 7.91 8.28 21.557 7.54 31.873-1.15 16.699-1.57 33.445-1.38 50.144.09 8.975.46 18.088 4.9 26.692s13.51 16.746 27.06 20.724c11.8 3.469 25.58 3.469 38.72 2.822l4.3-.185c4.35-.093 8.84.185 12.08 1.85 4.81 2.498 4.67 6.846 4.25 10.593v.324c-2.26 23.453 1.95 93.397 12.26 116.11l.05.047zm11.56-307.159c-2.31 44.963-8.93 89.788-9.48 134.798-.14 12.86.18 25.72-.6 38.534-8.38-4.071-9.95-12.767-10.41-20.354-1.8-30.67.51-61.524 6.98-91.824 3.15-14.757 7.27-29.374 8.89-44.27 2.17-19.845-.19-39.783-2.46-59.628l-7.54-64.994c.84-.509 1.76-.925 2.73-1.295 1.21-.463 2.41-.694 3.61-.879 9.25 35.99 10.22 73.182 8.28 109.912z"/></g><path d="M3744.79 173.612c-6.89 22.158-18.68 43.39-36.26 55.603-1.34 1.018-2.78 1.896-4.21 2.729-18.97 11.102-42.24 10.732-61.99 1.665s-36.13-26.182-47.92-46.166l23.63-6.476c15.08 11.009 35.21 21.926 49.73 10.408.19-.093.37-.278.56-.416 3.65-3.053 6.38-7.263 8.42-11.843a50.65 50.65 0 0 0 2.26-5.828c11.34-34.88-2.91-73.413-1.29-110.467.55-11.472 3.93-24.055 10.13-32.798 3.65-5.273 8.33-9.159 13.97-10.64 1.11-.277 2.31-.509 3.52-.601 3.93-.324 7.67.509 11.05 2.267 9.95 4.811 17.63 16.746 22.48 28.31 16.19 38.441 18.32 84.099 5.92 124.252z" class="F"/><g class="G"><path d="M3708.53 229.214c17.58-12.212 29.37-33.445 36.27-55.557 12.39-40.199 10.27-85.81-5.88-124.252-4.86-11.565-12.53-23.499-22.48-28.31l2.73 9.021c7.96 26.923 15.31 54.169 18.04 82.064 2.78 27.94.69 56.76-9.71 82.85-4.86 12.212-11.38 23.499-18.92 34.185h-.05zM3560.5 601.923c17.16 14.895 35.43 18.504 50.61 17.717 19.98-1.017 34.74-9.529 34.74-9.529V192.346c0-126.195-26.88-184.481-53.9-173.934-2.03.833-4.07 1.989-6.15 3.608-26.23 20.539-25.53 113.566-25.16 255.581l.04 45.426v5.043l-.18 273.853z"/></g><g class="F"><path d="M3580.71 318.448c-7.36 5.227-11.7 6.846-20.03 9.622-9.25 3.099-18.92 4.672-28.54 4.533h-.05c-7.63-.139-15.26-1.295-22.71-3.562-12.12-3.747-23.41-10.177-34.05-17.578-8.56-6.014-16.88-12.814-23.59-21.279-15.91-20.031-21.74-47.74-23.55-74.57-1.34-19.429-.55-40.199 8.79-56.529 4.58-8.002 11.8-14.386 19.71-17.671 8.28-3.469 17.35-3.561 24.98 1.481 12.77 8.465 16.98 27.2 17.25 43.9.28 16.745-1.94 34.092 3.01 49.821v.138c4.02 12.768 12.49 23.222 22.9 30.207 3.84 2.545 7.95 4.719 12.21 6.292 7.63 2.868 15.54 4.209 23.59 4.302 7.82.092 11.57-1.619 19.25-3.423.6-.139-3.1 2.174-2.5 2.035l3.79 37.424c-3.33 3.238 3.29 2.174-.46 4.857zm42.69 107.971c.97 17.44 25.77 16.098 38.3 12.906 19.11-4.903 36.09-20.585 43.86-40.985 8.42-22.343 6.06-48.017-.79-71.193l-1.57-4.95c-2.04-6.337-4.63-12.767-9.21-17.069-4.62-4.302-11.84-5.69-16.51-1.527-13.6 12.259-11.66 53.522-22.25 71.656-7.73 13.23-29.84 31.178-31.78 47.276-.14 1.342-.19 2.683-.1 3.84l.05.046z"/><path d="M3470.38 225.696l23.27 43.576c8.83 7.864 22.2 5.551 31.18-2.313a41.45 41.45 0 0 0 2.91-2.914c8.84-10.131 11.84-20.817 13.88-34.833 3.75-25.165 4.3-54.863.37-80.028-.83-5.227-2.68-11.426-7.26-12.398-5.65-1.156-9.35 6.384-10.64 12.629-1.9 9.159-2.73 18.596-2.5 28.033.23 9.483.23 20.447-.19 29.93-.74 16.884-6.43 28.542-19.47 29.282-.42.092-.88.092-1.34.092-9.44.046-20.82-10.269-30.21-11.056z"/><path d="M3428.19 215.613c1.81 26.83 7.64 54.539 23.55 74.569 6.71 8.466 15.03 15.22 23.59 21.28 10.64 7.401 21.93 13.831 34.05 17.578 16.74 5.135 34.69 4.626 51.3-.971l-.19 273.853c17.17 14.895 35.44 18.504 50.61 17.717-24.24-84.654-25.49-175.183-26.37-263.815l-.37-39.783-.27-41.217c-.37-85.625.69-171.204 7.86-256.46-2.04.833-4.07 1.989-6.15 3.608-26.23 20.539-25.54 113.566-25.17 255.581-8.05-.093-15.96-1.434-23.59-4.302-4.21-1.619-8.37-3.747-12.21-6.338 1.02-.925 1.99-1.897 2.91-2.914 8.84-10.131 11.85-20.817 13.88-34.833 3.75-25.165 4.3-54.864.37-80.028-.83-5.228-2.68-11.426-7.26-12.398-5.65-1.156-9.35 6.384-10.64 12.629-1.9 9.159-2.73 18.596-2.5 28.033.23 9.483.23 20.446-.18 29.929-.74 16.885-6.43 28.542-19.48 29.282-4.95-15.774-2.73-33.075-3.01-49.821-.27-16.745-4.48-35.48-17.25-43.946-14.9-9.807-35.3-.185-44.69 16.191-9.34 16.329-10.13 37.1-8.79 56.529v.046z"/></g><g class="G"><path d="M3623.41 426.416c.97 17.44 25.77 16.099 38.3 12.907 19.11-4.904 36.08-20.586 43.86-40.986 8.42-22.343 6.06-48.017-.79-71.192-.37 8.789-1.25 17.624-2.91 26.275-3.98 20.909-13 41.494-28.78 55.881-13.32 12.212-31.96 19.197-49.68 17.069v.046zm-91.32-93.811c-7.63-.139-15.26-1.296-22.71-3.562-12.12-3.747-23.41-10.177-34.05-17.579-8.56-6.013-16.88-12.814-23.59-21.279-15.91-20.03-21.74-47.739-23.55-74.569-1.34-19.429-.55-40.2 8.79-56.529 4.58-8.003 11.8-14.387 19.71-17.671-5.78 29.143-4.72 59.674 3.28 88.308 11.57 41.125 37.38 77.993 72.12 102.881z"/></g><path d="M3614.25 319.237c-.42 20.354-.92 41.68 8.47 59.721 6.43-5.089 7.03-14.433 7.03-22.667 0-45.334-1.76-90.668-4.35-135.956-2.5-43.298-1.99-140.766-9.67-132.624-15.4 2.405-2.82 90.39-2.31 104.915 1.43 42.142 1.71 84.377.83 126.519v.092z" class="F"/><path d="M3712.22 173.054c-3.79 11.981-11.98 24.471-24.51 25.905-7.5.879-14.25-2.451-19.94-7.586.18-.093.37-.278.55-.416 3.66-3.053 6.39-7.263 8.42-11.843 2.13-.324 4.26-.971 6.25-2.035 5.83-3.007 9.53-8.928 12.21-14.895 12.72-28.635 6.38-61.71-.32-92.287-2.83-13.045-5.69-26.506-7.04-39.875 3.66-5.273 8.33-9.159 13.97-10.64.37 3.423.88 6.846 1.39 10.223l9.16 59.304c4.3 27.987 8.51 57.176-.14 84.145z" class="G"/><path d="M3726.88 580.178s-26.55-7.216-33.91-35.573c18.97 13.924 20.73 17.763 20.73 17.763s-16.61-19.845-15.13-41.494c19.01 23.176 22.21 34.556 22.21 34.556s-15.13-39.182-6.06-58.241c17.3 47.416 12.12 62.358 12.12 62.358s-.79-36.082 13.55-51.024c.88 39.69-6.85 52.596-6.85 52.596s9.81-20.631 26.79-34c.51 9.807-19.99 35.573-19.99 35.573l25.63-13.415c-11.33 19.568-39.18 30.947-39.18 30.947l.09-.046z" class="F"/><path d="M912.719 898.534l2.544-.231c-1.295.231-2.128.277-2.544.231z" class="D"/><path d="M3886.02 561.909v993.741H-45.998V775.626s552.055 98.208 1641.178 24.378c1089.12-73.875 1677.4-238.095 2290.84-238.095z" fill="url(#E)"/><g style="mix-blend-mode:soft-light" opacity=".4"><path d="M3886.02 561.909v30.947c-490.76-39.088-1404.98 177.774-1648.3 241.149-265.81 69.203-594.38-10.64-763.51 16.098-169.17 26.692-457.59 51.116-442.84 2.914C581.459 875.36 77.236 808.424-45.998 790.614v-14.988s552.055 98.208 1641.178 24.378c1089.12-73.875 1677.4-238.095 2290.84-238.095z" fill="#fff"/></g><g class="D"><path d="M1217.84 934.617s2.92 39.505-221.993 67.073c-127.953 15.68-42.697-52.779 145.763-67.073M-45.998 858.476S770.613 1169.89 1718.23 1101.84c947.62-68.04 1332.81-573.468 2167.79-425.347v879.157H-45.998V858.476z" class="E"/></g><path d="M862.343 1270.18s-50.284-13.64-64.161-67.35c35.85 26.37 39.227 33.68 39.227 33.68s-31.41-37.57-28.634-78.55c35.989 43.9 42.096 65.36 42.096 65.36s-28.635-74.15-11.519-110.28c32.752 89.79 22.991 118.05 22.991 118.05s-1.434-68.32 25.627-96.59c1.712 75.13-12.952 99.55-12.952 99.55s18.55-39.04 50.746-64.39c.972 18.55-37.794 67.35-37.794 67.35l48.526-25.35c-21.464 37.1-74.153 58.57-74.153 58.57v-.05z" class="G"/><path d="M2372.75 1288.22s-21.38-20.95-26.7-63.65c19.34 18.83 24.43 42.23 24.43 42.23s-26.46-86.5 1.02-125.13c-1.02 48.85 9.16 113.48 9.16 113.48s10.64-95.85 11.19-137.86c15.54 32.34 5.51 121.02 5.51 121.02s17.9-60.97 41.3-80.31c-13.23 48.85-41.72 97.19-41.72 97.19s22.39-33.07 54.95-55.46c-19.33 49.87-47.83 68.18-47.83 68.18s32.57 5.09 61.07-35.62c0 0-10.37 46.63-69.81 65.69-46.31-3.61-62.5-49.4-62.5-49.4l39.69 28.49" class="F"/><path d="M-45.998 1218.42s607.427 73.83 1333.508 6.15 1421.4 123.05 1421.4 123.05-941.46-160.52-1685.58 208.03H-45.998v-337.28.05z" fill="url(#F)"/><g class="D"><path d="M245.662 1413.77c0 9.43-46.397 17.07-103.62 17.07s-103.62-7.64-103.62-17.07c0-9.44 46.398-17.07 103.62-17.07s103.62 7.63 103.62 17.07zm261.594 66.84c0 8.24-11.333 14.16-35.573 14.16s-53.892-6.71-53.892-14.95c0-8.23 31.734-8.32 55.973-8.32s33.492 9.06 33.492 9.06v.05zm419.242-38.25c0 21.46-151.406 38.26-272.142 37.52-114.26-.7-160.889-22.26-160.889-43.67 0-13.97 102.093-13.97 216.353-13.97s216.724 11.7 216.724 20.17l-.046-.05zM3886.02 941.513s-512.6 79.977-1152.5 67.677c596.88 135.35 717.48 123.05 1152.5 215.38V941.513zM3575.86 1255.1l-559.69-119.39c388.07 116.89 559.69 119.39 559.69 119.39zm41.63-349.997c-4.12 4.441-7.82 10.038-7.17 16.052.46 4.487 3.38 8.419 6.94 11.149 7.26 5.597 16.84 6.8 25.95 7.586 34.83 3.053 70.5 2.914 104.13-6.661 11.61-3.331 24.29-9.113 27.89-20.632 3.15-10.131-2.36-21.464-10.82-27.894-8.47-6.43-19.29-8.789-29.84-10.131-39.32-4.903-88.26-.37-117.03 30.578l-.05-.047zm-212.75 17.21c3.93 7.262 11.24 11.888 18.69 15.08 10.64 4.58 22.06 6.846 33.49 8.327 24.33 3.192 49.03 3.099 73.37-.231 12.16-1.712 25.07-4.626 33.72-13.601 8.7-9.02 11.47-22.435 11.84-35.11.23-7.818-.37-15.96-4.35-22.621-3.84-6.476-10.45-10.778-17.07-14.109-32.19-16.144-67.81-13.323-99.96 1.018-21.23 9.437-66.99 29.374-49.68 61.293l-.05-.046zm188-88.125c-4.53 6.43-6.43 14.942-5.13 22.852.6 3.608 1.85 7.216 4.07 10.038 4.67 6.014 12.58 7.633 19.89 7.91 7.82.278 15.82-.601 22.85-4.209 7.03-3.655 12.95-10.362 14.48-18.596 1.71-9.298-2.68-19.29-9.95-24.703-12.95-9.529-36.49-6.985-46.12 6.708h-.09z" class="E"/></g><path opacity=".71" d="M270.321 1452.86l-316.319 59.49v43.3h218.25l80.583.04 150.666-90.11-133.18-12.72z" fill="#e89f4f"/><g class="M"><path d="M270.327 1452.86c26.784 23.22 55.28 28.86 78.965 27.61 31.225-1.57 54.215-14.89 54.215-14.89V813.558c0-196.971-41.91-287.916-84.145-271.448-3.192 1.295-6.384 3.099-9.576 5.597-40.939 32.058-39.875 177.219-39.273 398.846l.092 70.917v7.91l-.324 427.43.046.05z"/><path d="M557.961 784.413c-10.686 34.556-29.144 67.677-56.575 86.736-2.128 1.573-4.302 2.961-6.615 4.302-29.514 17.301-65.873 16.7-96.728 2.591-30.808-14.202-56.343-40.847-74.801-72.072l36.915-10.084c23.87 17.393 55.742 34.648 78.501 15.589 8.05-6.708 13.231-17.023 16.654-27.57 17.671-54.447-4.58-114.584-1.989-172.454.462-9.946 2.313-20.493 5.597-30.207 5.227-16.052 14.248-29.976 26.923-35.712 3.284-1.527 6.8-2.452 10.547-2.776 6.152-.462 11.981.833 17.301 3.562 15.496 7.494 27.478 26.09 35.064 44.177 25.211 59.998 28.588 131.191 9.206 193.918zM368.533 1178.96c1.526 27.2 40.245 25.12 59.766 20.12 29.837-7.68 56.344-32.1 68.417-63.93 13.138-34.83 9.484-74.94-1.202-111.07-.74-2.59-1.573-5.18-2.452-7.72-3.192-9.85-7.216-19.893-14.34-26.647-7.217-6.661-18.458-8.881-25.72-2.359-21.28 19.156-18.226 83.546-34.695 111.856-12.073 20.63-46.536 48.66-49.589 73.78-.232 2.13-.324 4.16-.139 6.02l-.046-.05z"/></g><path d="M129.697 865.691l36.313 68.047c13.831 12.304 34.602 8.65 48.664-3.655a69.74 69.74 0 0 0 4.534-4.533c13.831-15.775 18.457-32.52 21.649-54.355 5.829-39.274 6.661-85.671.601-124.899-1.295-8.142-4.163-17.856-11.333-19.383-8.789-1.804-14.572 9.946-16.607 19.753-2.961 14.294-4.256 29.004-3.886 43.715.37 14.803.37 31.872-.324 46.675-1.156 26.368-10.038 44.594-30.392 45.704-.694.139-1.388.139-2.128.139-14.71.092-32.52-16.006-47.138-17.255l.047.047z" class="F"/><g class="G"><path d="M349.285 1480.47c-23.684 1.2-52.134-4.39-78.964-27.61l.324-427.44c-25.905 8.74-53.892 9.58-80.028 1.53-18.92-5.88-36.545-15.87-53.152-27.433-13.369-9.391-26.368-19.938-36.822-33.168-24.841-31.271-33.954-74.569-36.776-116.388-2.035-30.299-.833-62.727 13.739-88.262 5.967-10.408 14.803-19.105 24.748-24.702 10.131-5.644 21.372-8.142 31.919-5.968 4.534.925 8.928 2.683 13.045 5.413 19.984 13.183 26.507 42.419 26.969 68.556s-3.053 53.151 4.719 77.761c20.354-1.156 29.235-19.383 30.346-45.704.693-14.803.693-31.919.323-46.722-.37-14.71.926-29.467 3.886-43.714 2.036-9.807 7.818-21.557 16.607-19.753 7.124 1.527 10.038 11.241 11.334 19.383 6.06 39.227 5.227 85.625-.602 124.899-3.192 21.834-7.864 38.58-21.649 54.354-1.434 1.573-2.961 3.1-4.58 4.534 6.014 4.024 12.444 7.401 19.059 9.899 11.935 4.487 24.286 6.523 36.822 6.661-.601-221.627-1.665-366.787 39.274-398.845 3.192-2.498 6.384-4.348 9.576-5.644-11.241 133.041-12.906 266.591-12.305 400.234l.462 64.349.602 62.08c1.341 138.26 3.33 279.59 41.124 411.7zm152.102-609.319c27.431-19.059 45.842-52.18 56.575-86.69 19.382-62.727 16.005-133.92-9.206-193.917-7.586-18.088-19.568-36.684-35.064-44.178l4.255 14.063c12.444 42.003 23.916 84.515 28.172 128.091 4.349 43.576 1.064 88.632-15.173 129.294-7.586 19.059-17.763 36.684-29.559 53.383v-.046zm-132.86 307.809c1.527 27.2 40.246 25.12 59.767 20.12 29.837-7.68 56.344-32.1 68.417-63.93 13.138-34.83 9.483-74.94-1.203-111.07-.601 13.74-1.989 27.48-4.533 40.99-6.245 32.66-20.261 64.76-44.871 87.24-20.817 19.06-49.867 29.98-77.53 26.65h-.047zm-16.562-16.01c1.018-32.93-1.85-65.68.185-98.57 2.082-33.36-2.128-89.654-2.868-123.053-1.712-79.75 7.633-136.649 5.875-216.399l-3.099-96.219c-.926-16.931-2.498-34.972-12.86-48.341l-.648 84.053-3.146 164.636c-3.33 79.797-10.639 159.547-8.234 239.343 1.064 35.02 3.979 69.94 6.893 104.82.74 9.02-2.498 47.56 11.981 43.58 11.75-3.24 5.597-43.76 5.921-53.8v-.05zm164.363-437.933c0 22.066-1.48 44.548-9.205 65.226-8.512 22.805-24.148 42.141-40.338 60.368-6.523 7.401-16.977 15.265-25.165 9.714-7.309-4.904-5.32-16.792.879-23.037s14.988-9.021 22.389-13.785c25.119-16.145 29.328-50.746 28.264-80.537-1.989-55.326-13.646-110.328-34.231-161.722 5.227-16.052 14.247-29.976 26.922-35.712 20.123 57.546 30.485 118.516 30.485 179.485z"/></g><path d="M168.092 974.355c-12.675 19.567-57.916-59.582-65.826-100.66-8.697-45.01-8.558-91.685.092-136.695 10.131-5.644 21.372-8.142 31.919-5.968-4.811 13.647-8.697 27.617-11.38 41.911-7.216 38.672-4.996 79.843 11.565 115.509 13.091 28.264 35.296 54.77 33.63 85.903z" class="M"/><g class="F"><path d="M1220.71 527.307v33.491l-.18 62.681-.42 63.93-1.89 243.924c-.1 9.992-9.3 16.237-22.11 19.475-7.87 1.989-17.17 2.868-26.47 2.729-22.38-.37-44.68-6.476-47.64-15.635l5.73-151.498 1.11-31.78 1.35-38.395 1.85-59.073c2.08-78.641 1.48-153.719 2.26-229.676v-.463l.28-22.25.97-46.722 2.36-65.734c1.34-27.617 2.78-55.557 9.58-81.694 3.33-13.184 8.83-26.691 17.81-33.445 1.2-.925 2.49-1.758 3.88-2.405 1.71-.833 3.43-1.342 5.18-1.62 4.58-.786 9.26.232 13.6 2.452 7.68 3.932 14.53 11.75 18.74 21.048 7.58 16.746 8.79 37.007 9.53 56.39 2.59 66.613 3.79 141.182 4.3 217.279v2.312l.18 54.679z"/><path d="M1169 417.445c-10.64 5.921-22.53 9.205-34.65 10.038-.28 0-.6.046-.88.046-12.91.74-25.91-1.434-37.79-6.522-23.27-9.992-41.45-31.179-47.74-55.743-3.52-13.692-3.52-28.079-3.2-42.188.74-30.161 2.87-60.414 10.04-89.742 2.04-8.327 5.28-17.44 11.89-22.251 1.2-.971 2.64-1.712 4.12-2.313 10.08-3.793 21.69 3.099 26.78 12.629 5.09 9.483 5.37 20.77 5.51 31.548l.74 65.041c.14 11.194.69 23.453 8.28 31.595 6.01 6.522 14.52 8.558 23.45 8.419 7.26-.046 14.85-1.619 21.84-3.238l11.61 62.681zm11.1 302.438l-4.95 63.005c-7.59 1.018-15.27 1.897-22.99 2.452-8.14.694-16.29 1.017-24.43 1.064-15.12.185-30.25-.463-45.28-2.082-26.65-2.914-55.7-10.362-71.01-32.844-11.613-16.884-12.908-38.719-13.556-59.35-1.434-42.882-2.174-85.811-2.035-128.647.046-43.252 1.156-87.614 15.821-128.091.83-2.313 1.71-4.533 2.64-6.846 2.91-7.031 6.98-14.664 14.15-16.7 7.03-1.989 14.67 2.313 18.74 8.466s5.36 13.785 6.15 21.094c8.05 69.574-11.38 140.766 1.02 209.6 1.43 7.725-4.21 58.517 42.09 62.912 12.26 1.203 23.13 1.758 33.72 2.22 16.06.74 31.46 1.342 49.92 3.655v.092zm146.55-229.259c-2.03 10.825-4.53 21.881-10.31 31.318-15.73 26.09-49.92 32.844-80.17 37.007-5.09.786-10.22 1.434-15.45 1.85-7.31.74-14.71 1.064-21.84.602-11.98-.741-23.45-3.701-33.07-10.918l22.76-79.796c4.07 1.526 8.28 2.405 12.53 2.683 6.53.37 13.1-.74 19.43-3.053.19 0 .42-.047.51-.186 10.46-3.885 19.94-10.917 26.69-19.752 13.6-17.764 18.04-40.893 19.06-63.19 1.07-22.297-.78-44.825 2.08-66.983 1.39-10.917 4.12-22.112 10.87-30.762.28-.417.61-.833.93-1.203 7.4-8.789 20.22-13.831 30.81-9.298 1.43.601 2.77 1.388 4.02 2.267 9.58 6.753 13.09 20.4 14.9 32.473 1.29 8.558 2.31 17.163 3.1 25.767a524.36 524.36 0 0 1-6.85 151.174zm-52.37 164.866c-8.14 13.415-21.55 23.175-36.26 28.541-5.65 2.036-11.94 3.377-17.9 3.377-7.18.047-14.11-1.85-19.39-6.522l-1.76-51.949c7.54-.555 14.71-2.498 21.56-5.412 11.38-4.904 21.79-12.537 30.81-21.141 2.04-1.896 4.07-3.932 6.71-4.996 8.32-3.469 17.21 4.626 20.68 12.953 5.96 14.525 3.74 31.734-4.4 45.149h-.05z"/></g><g class="G"><path d="M1169.64 953.537c-22.39-.324-44.68-6.43-47.69-15.59l5.78-151.498c-15.12.185-30.25-.463-45.28-2.082-26.65-2.914-55.7-10.361-71.01-32.843-11.613-16.885-12.908-38.719-13.556-59.351-1.434-42.882-2.174-85.81-2.035-128.646.046-43.252 1.156-87.615 15.821-128.091.42.277.88.693 1.29 1.064 20.91 19.058 11.8 51.948 10.78 76.79-1.62 40.199-2.22 80.49-1.99 120.782.14 21.649.7 43.53 6.99 64.3 6.29 20.678 19.24 40.292 38.67 49.913 16.84 8.327 36.5 8.42 55.28 6.801l6.15-.417c6.25-.185 12.63.416 17.21 4.395 6.85 6.013 6.66 16.468 6.11 25.581v.74c-3.24 56.482 2.77 113.52 17.48 168.198v-.046zm-6.1-553.536c-8.46 10.084-17.95 20.77-29.23 26.969-.28.278-.61.416-.88.555-12.91.74-25.91-1.434-37.8-6.522-23.27-9.992-41.45-31.179-47.74-55.743-3.51-13.692-3.51-28.079-3.19-42.188.74-30.161 2.87-60.414 10.04-89.742 2.04-8.327 5.27-17.44 11.89-22.251-3.75 18.874-5.14 38.395-5.92 57.593-1.3 33.63-.14 69.157 17.07 98.115 11.93 20.215 34.09 35.527 56.76 37.932 9.85 1.157 19.8-.277 28.95-4.764l.05.046zm163.11 90.623c-2.04 10.87-4.54 21.926-10.32 31.317-15.73 26.09-49.91 32.844-80.17 37.007-5.09.74-10.22 1.434-15.45 1.851l-.18 62.681c11.38-4.811 21.79-12.49 30.81-21.095 2.03-1.896 4.07-3.932 6.7-4.996 8.33-3.469 17.21 4.626 20.68 12.953 5.97 14.525 3.75 31.734-4.39 45.149s-21.56 23.176-36.27 28.542c-5.64 2.035-11.93 3.377-17.9 3.377l-1.9 243.923c-.05 9.992-9.3 16.191-22.11 19.475-4.21-129.71-.69-259.513 2.77-389.408l2.23-88.031 1.89-122.263c.46-58.887-.28-118.932-15.03-175.506 7.68 3.932 14.52 11.749 18.73 21.001 7.59 16.746 8.84 37.007 9.58 56.436 2.59 66.613 3.79 141.183 4.25 217.279.19 0 .42-.046.56-.185-.19.879-.42 1.711-.56 2.498-3.97 17.856-6.56 35.758-5.5 53.984 1.9.324 3.79.555 5.69.694 22.57 1.573 44.96-10.917 59.86-28.264 16.14-18.874 24.89-42.79 32.29-66.474 9.34-30.3 16.93-61.571 20.63-93.12 4.99 50.376 2.73 101.446-6.85 151.175h-.04zm-140.49-111.81c-3.33 84.145-12.72 168.013-13.51 252.204-.23 24.055.28 48.11-.83 72.118-11.98-7.586-14.2-23.869-14.85-38.071a838.03 838.03 0 0 1 9.95-171.852c4.48-27.571 10.36-55.002 12.67-82.85 3.1-37.146-.23-74.477-3.51-111.577l-10.78-121.615c1.2-.925 2.5-1.758 3.88-2.405 1.72-.833 3.43-1.342 5.19-1.62 13.18 67.307 14.57 136.927 11.79 205.668zm121.15 29.932c-.97 2.683-2.27 5.551-4.81 6.8-5.09 2.452-10.36-3.146-12.4-8.373-8.65-22.019 1.62-46.722.69-70.36-.64-16.006-6.43-31.78-11.05-47.369.28-.417.6-.833.92-1.203 7.4-8.789 20.22-13.831 30.81-9.298 1.44.601 2.78 1.388 4.03 2.267.32 43.252 6.57 87.244-8.19 127.536z"/></g><path d="M-45.998 1025.66s125.547 133.55 262.381 162.13c-143.588 10.27-262.381-18.5-262.381-18.5v-143.63z" class="D E"/><path d="M915.356 1443.24s-6.569 1.43-18.365 3.42c-57.916 10.32-241.333 37.24-381.452-3.42 0 0 16.191-33.82 39.135-63.89 18.828-24.65 42.142-46.76 64.994-45.88 20.909.78 48.526 10.27 73.737 21.09 35.943 15.45 67.122 33.77 67.122 33.77s64.67-1.94 90.159 9.81c4.949 2.26 10.501 5.41 16.144 8.97 23.176 14.53 48.526 36.13 48.526 36.13z" class="H"/><g style="mix-blend-mode:multiply" class="I J"><path d="M896.991 1446.71c-57.916 10.31-241.333 37.24-381.452-3.43 0 0 16.191-33.81 39.135-63.88 8.281 19.15 25.35 34.37 45.427 40.2 7.771 2.27 16.792 3.01 23.638-1.48 6.754-4.49-9.437-10.96 2.59-20.72 16.006-7.78 37.609-.56 45.658 15.35 2.868 5.6 4.256 12.17 8.651 16.61 5.643 5.78 14.525 6.57 22.574 6.99l193.825 10.36h-.046z"/></g><g style="mix-blend-mode:soft-light" class="K"><path d="M866.827 1407.11c-26.367-3.01-52.874-4.49-79.473-4.4-24.378.05-51.625.42-69.157-16.51-5.412-5.23-9.344-11.7-13.692-17.81-3.424-4.76-7.171-9.39-11.103-13.78 35.944 15.45 67.122 33.76 67.122 33.76s64.67-1.94 90.159 9.81c4.95 2.27 10.501 5.41 16.144 8.98v-.05z"/></g><g class="H"><path d="M440.223 1475.53s9.853-32.57 27.663-33.21c17.809-.65 39.366 38.3 39.366 38.3s-41.818 18.27-67.029-5.09zm-212.651-64.03s-84.284 14.53-144.375-4.85c6.615-6.9 13.323-12.26 20.03-16.38 38.534-23.87 75.541-7.4 75.541-7.4s5.228-11.38 18.782-15.13c8.65-2.36 18.503 16.15 24.517 29.84 3.377 7.72 5.505 13.92 5.505 13.92z"/></g><g style="mix-blend-mode:multiply" class="I J"><path d="M227.572 1411.5s-84.284 14.53-144.375-4.86c6.615-6.89 13.323-12.25 20.03-16.37.833 3.61 2.637 6.94 5.505 9.34 6.245 5.18 15.219 4.91 23.315 4.31l90.02-6.34c3.377 7.72 5.505 13.92 5.505 13.92z"/></g><path d="M2974.02 1365.85s622.18 49.54 778.72 35.71c-58.79 56.94-228.01 93.26-295.68 85.85-67.68-7.4 50.47-60.32 50.47-60.32s-311.98-21.65-533.51-61.29v.05z" fill="#ffd860"/><path d="M1280.06 991.147c25.7 0 46.53-4.412 46.53-9.853s-20.83-9.854-46.53-9.854c-25.71 0-46.54 4.412-46.54 9.854s20.83 9.853 46.54 9.853z" class="D E"/><path d="M1251.38 978.793s7.49-17.948 35.01-20.168c27.53-2.221 31.51 21.788 31.51 21.788s-24.52 9.991-66.57-1.62h.05z" class="H"/><path d="M942.051 919.77c0 8.188-72.58 14.849-162.138 14.849s-162.138-6.661-162.138-14.849 72.581-14.849 162.138-14.849 162.138 6.661 162.138 14.849z" class="D E"/><path d="M936.504 915.285l-2.498.416c-105.332 18.457-267.239 10.038-272.743-.416-5.552-10.547 68.37-16.422 68.37-16.422s.787-3.516 22.76-8.049c11.241-2.359 28.079-4.95 53.198-7.448 74.107-7.401 130.913 31.919 130.913 31.919z" class="H"/><g style="mix-blend-mode:soft-light" class="K"><path d="M936.5 915.285l-2.498.416c-14.942.463-29.93.278-44.872.046-13.739-.185-27.616-.416-40.939-3.885-14.895-3.84-28.773-11.658-43.992-13.6-17.579-2.267-37.563 2.821-51.81-7.448 11.241-2.359 28.079-4.95 53.198-7.448 74.107-7.401 130.913 31.919 130.913 31.919z"/></g><path opacity=".71" d="M2734.96 1330.73l-54.08 224.96h256l16.74-236.11-218.66 11.15z" fill="#e89f4f"/><g class="G"><path d="M2953.62 1319.58s-6.93 1.48-18.08 3.38c-6.85 1.15-15.36 2.45-24.75 3.65-10.5 1.39-22.11 2.59-33.96 3.38-31.13 1.9-63.88.6-81.5-10.41l10.03-535.309c4.45-155.061 3.38-236.569 52.65-247.347 6.98-1.573 14.94-1.712 24.1-.417 73.74 10.455 56.11 141.877 51.53 409.346-2.73 166.577 19.98 373.727 19.98 373.727z"/><path d="M2851.81 971.71l-34.88 74.71c-7.87-3.33-16.28-4.49-24.93-4.81-19.94-.93-41.18 2.82-58.99-6.16-7.26-3.65-13.46-9.15-19.1-15.12-27.66-29.099-43.39-67.864-51.02-107.277-7.64-39.412-7.73-172.361-7.64-212.467 0-22.945.33-47.046 11.94-66.752 3.98-6.708 9.67-12.583 16.33-16.885 7.08-4.718 15.17-7.725 23.13-8.049 5.41-.277 10.82.648 15.77 3.053 1.02.417 2.04.972 3.01 1.573 10.5 6.476 16.37 18.319 20.21 30.068 9.53 29.005 9.44 60.045 9.35 90.529l-.37 147.705-.05 20.632c0 6.985 0 14.109.83 21.048.79 6.569 2.36 12.952 5.37 18.874 7.54 14.987 23.55 24.332 39.88 28.079 16.37 3.608 33.44 2.544 50.19 1.295.32 0 .64 0 .97-.046z"/></g><path d="M2856.02 968.89c-.23 1.804-2.31 2.59-4.21 2.822l1.34-2.915c-1.38-1.665 3.33-2.081 2.92.093h-.05z" class="F"/><path d="M3088.51 724.457c-6.2 13.508-14.48 26.276-25.67 35.851-21.7 18.643-51.49 23.962-79.75 27.987-7.91 1.156-15.91 2.267-23.92 3.053-20.35 1.989-40.84 2.035-60.13-4.21l-4.31-77.021c8.52 13.276 25.68 15.589 42.15 14.757 3.65-.185 7.26-.602 10.82-1.018 19.89-2.313 42-6.106 54.17-22.112 11.1-14.479 10.45-34.463 11.29-52.735.74-17.301 3.37-34.556 7.77-51.348 4.07-15.589 12.58-33.214 28.49-35.157 1.76-.138 3.47-.138 5.14 0 12.86 1.435 23.22 13.601 29.56 25.443 1.76 3.284 3.38 6.615 4.9 10.038 17.63 39.69 17.58 86.921-.51 126.472z" class="G"/><g class="M"><path d="M2814.71 1017.79c.23 5.23-3.47 23.73-5.04 28.63-19.99-.92-58.8-1.99-76.61-10.91-7.31-3.66-13.51-9.21-19.15-15.18-27.66-29.047-43.39-67.812-51.02-107.271-7.64-39.412-7.73-172.361-7.64-212.468 0-22.944.33-47.045 11.94-66.751 3.98-6.708 9.67-12.583 16.33-16.885-1.25 8.095-1.9 16.468-2.59 24.703-4.49 56.343-7.77 206.5 7.35 260.993 13.79 49.543 74.16 97.649 126.38 115.139h.05z"/><path d="M2876.83 1329.99c-31.13 1.89-63.83.6-81.5-10.46l10.03-535.306c4.49-155.061 3.38-236.569 52.69-247.301 15.08 58.147 2.92 165.885 2.5 183.694l-4.49 178.514c-2.96 119.439-5.96 239.389 9.12 357.809 3.14 24.52 7.03 48.85 11.65 73.05zm177.73-767.482l-5.87 48.386c-3.05 25.767-6.29 51.857-15.91 75.958-9.63 24.101-26.51 46.398-50.2 56.898-14.57 6.477-34.88 6.384-42.83-7.355-2.18-3.747-2.96-7.632-2.92-11.518 3.66-.185 7.31-.602 10.87-.972 19.9-2.313 42.01-6.152 54.17-22.111 11.11-14.48 10.46-34.463 11.29-52.782.74-17.301 3.38-34.556 7.77-51.348 4.07-15.589 12.59-33.214 28.5-35.11 1.76-.185 3.47-.185 5.13 0v-.046zm-119.02 760.452a642.3 642.3 0 0 1-24.74 3.65c-2.13-21.69-5.97-43.3-9.35-64.85-23.17-146.27-27.52-295.505-12.95-442.886 2.73-27.432 6.15-55.095 16-80.861 14.39 18.365 13.47 44.038 11.94 67.307-11.47 172.823-19.52 349.72 19.1 517.64zm-180.13-399.449c-6.16-.417-12.17-2.822-17.49-6.153-28.91-18.272-34.56-57.5-36.18-91.685-3.42-72.257-1.75-144.745 4.91-216.77 5.41-.277 10.82.648 15.77 3.053a1895.21 1895.21 0 0 0-14.38 181.104c-.98 30.901 2.35 68.14 29.79 82.48 5.32 2.776 11.1 4.395 16.79 6.291l-.05 20.632c0 6.985 0 14.109.84 21.048zm333.11-199.052c-6.2 13.508-14.48 26.276-25.68 35.851-21.69 18.643-51.48 23.962-79.75 27.987-7.91 1.156-15.91 2.267-23.91 3.053 8.09-5.042 18.18-7.864 27.29-11.334 42.14-16.051 72.72-54.863 87.84-97.375 9.95-27.986 11.43-55.649 14.71-84.654 17.63 39.691 17.58 86.921-.5 126.472z"/></g><path d="M3076.63 1310.98s-36.97 3.14-39.37 12.4c-2.41 9.29 109.73 41.81 245.45 36.22 135.72-5.65 189.75-31.18 190.54-40.02.79-8.83-161.12-15.03-220.75-8.55" class="D E"/><path d="M3427.68 1312.88s-152.05 56.48-373.12 6.71c0 0 8.6-13.28 19.84-25.17 8.61-9.16 18.78-17.58 27.76-18.46-1.11-5.22.05-10.54 2.87-15.59 11.56-20.81 51.67-36.59 77.48-21.41 2.04 1.2 3.98 2.59 5.83 4.16l79.8 19.94 51.48 13.18 10.27 21.65 97.79 14.99z" class="H"/><g style="mix-blend-mode:multiply" class="I J"><path d="M3427.68 1312.88s-152.05 56.48-373.12 6.7c0 0 8.6-13.27 19.84-25.16 39.42 8.6 78.37 20.17 118.52 23.04 2.08.14 4.35.18 6.01-1.02 4.54-3.38-.69-10.59-6.15-12.08-5.46-1.43-12.4-1.71-14.85-6.8a318.76 318.76 0 0 0 60.92-13.78c7.59-2.5 15.22-5.41 21.33-10.5 3.33-2.78 6.2-6.34 7.96-10.22l51.48 13.18 10.27 21.65 97.79 14.99z"/></g><g style="mix-blend-mode:soft-light" class="K"><path d="M3182.51 1238.96l-11.24 2.22c-7.17 1.43-15.4 3.7-18.27 10.45-1.99 4.67-.7 10.5-3.56 14.76-2.04 3.05-6.2 4.53-9.76 3.47-3.57-1.07-6.2-4.58-6.25-8.28 0-2.04.46-4.58-1.2-5.74-.83-.56-1.9-.56-2.92-.46-7.4.46-14.75 1.89-21.74 4.35-.83.27-1.66.6-2.54.64 11.56-20.81 51.67-36.59 77.48-21.41z"/></g><g fill="#ffd860"><path d="M3387.3 1437.64l-176.38-10.5s72.07 49.22 176.38 10.5zm-1803.17 11.98c-6.25 5.83-12.68 13.51-11.01 21.88.83 4.25 3.7 7.82 6.94 10.68 12.39 10.92 29.97 13.1 46.44 14.39 46.44 3.56 93.07 3.79 139.66 3.98 34.92.14 70.4.23 104.03-9.21 18.37-5.13 38.49-16.28 40.66-35.25 1.39-11.98-5.32-23.73-14.61-31.41-9.3-7.68-20.87-11.88-32.34-15.59-97.61-31.5-200.53-33.35-279.87 40.53h.1zm294.15-69.2c-1.43 4.71 3.8 8.65 8.28 10.68 37.57 17.12 81 21 121.06 10.87 11.8-3 25.63-10.41 24.75-22.53-.69-9.99-11.19-16.09-20.68-19.33-23.54-8.1-122.26-16.47-133.41 20.31zm51.72 81c-.74 2.91 1.9 5.36 4.17 6.61 18.78 10.59 40.52 13 60.5 6.76 5.88-1.86 12.82-6.48 12.4-13.98-.37-6.19-5.6-9.94-10.32-11.98-11.75-4.99-61.15-10.22-66.7 12.59h-.05zm86.92-15.31c-.37 1.48.92 2.68 2.08 3.33 9.39 5.32 20.26 6.52 30.25 3.37 2.97-.92 6.39-3.23 6.2-6.98-.18-3.1-2.77-5-5.18-6.02-5.87-2.49-30.57-5.08-33.35 6.3z"/></g><g class="D"><path d="M821.814 968.712c-2.405 1.481-4.718 3.47-5.134 5.968-.463 2.683 1.48 5.366 4.07 6.939s5.783 2.22 8.928 2.775c8.512 1.434 17.163 2.036 25.813 1.851 8.234-.185 17.07-1.388 22.852-6.384 2.405-2.082 4.163-5.135 3.099-7.91-.971-2.406-3.747-3.932-6.476-4.996-14.942-6.014-39.089-6.847-53.198 1.804l.046-.047zm65.692-15.96c-1.85 1.203-3.7 2.73-3.932 4.58-.185 1.527.833 3.007 2.313 3.932 1.434.925 3.285 1.434 5.135 1.85 4.348.972 8.928 1.434 13.508 1.527 6.707.139 14.386-.925 18.55-5.366 1.573-1.665 2.498-3.886 1.711-5.736-.555-1.295-1.85-2.267-3.192-3.053-9.622-5.644-24.471-3.84-34.093 2.313v-.047zm271.264 68.088c-1.85 1.9-3.19 4.07-2.73 6.25.7 3.1 4.86 5.55 9.25 7.26 10.88 4.25 24.24 5.74 37.29 5.87 12.26.14 24.89-.92 35.57-4.48 5.09-1.71 9.72-4.03 12.59-7.03 2.86-3.01 3.79-6.8 1.52-10-3.33-4.67-12.21-6.98-20.44-8.23-23.09-3.56-59.08-3.79-73.05 10.41v-.05z" class="E"/></g><path d="M2851.52 1338.83s-13.87 10.41-52.13 12.63c-53.06 1.25-77.16-13.74-59.12-31.88 0 0-.55-8.69 1.62-20.03.23-1.24.51-2.54.83-3.88 4.07-17.3 14.71-38.81 42.05-45.33 9.53-2.27 17.58-.1 24.33 4.85.93.65 1.81 1.34 2.69 2.13 25.67 21.88 39.73 81.51 39.73 81.51z" class="H"/><g style="mix-blend-mode:multiply" class="I J"><path d="M2851.53 1338.83s-13.88 10.4-52.14 12.63c-3.7.09-7.26.09-10.68.04-45.52-.92-65.23-15.03-48.44-31.92 0 0-.55-8.69 1.62-20.03 4.07.28 7.96-.69 11.38-3.42 2.87-2.27 4.86-5.55 7.54-8.05 11.24-10.87 29.15-6.61 41.36-15.63 5.04-3.75 7.54-9.4 9.62-15.13 11.66 9.94 20.91 27.61 27.57 43.99 7.96 19.71 12.17 37.52 12.17 37.52z"/></g><g style="mix-blend-mode:multiply" class="I J"><path d="M2851.53 1338.83s-13.88 10.41-52.14 12.63c-3.7.09-7.26.09-10.68.04 10.82-5.73 21.05-12.58 30.53-20.35 4.99-4.12 9.85-8.61 13.32-14.11 2.87-4.58 4.67-9.71 6.48-14.85.09-.28.18-.6.32-.88 7.96 19.71 12.17 37.52 12.17 37.52z"/></g><path d="M3291.91 948.079c-.09 1.295 0 8.928 50.56 6.198 2.87-8.28-50-14.016-50.56-6.198z" class="D E"/><path d="M3296.03 948.077s4.9-18.92 19.89-17.301c14.98 1.619 11.93 17.301 11.93 17.301h-31.82z" class="H"/><path d="M1747.47 1060.58c0 7.91-72.08 14.34-161.03 14.34-88.96 0-161.03-6.43-161.03-14.34s72.07-14.34 161.03-14.34c88.95 0 161.03 6.43 161.03 14.34z" class="D E"/><path d="M1460.38 1054.61s8.01-28.77 36.32-46.07c10.13-6.25 22.85-10.964 38.76-12.352 60.23-5.319 106.4 36.132 106.4 36.132s43.02 4.72 70.22 13.69c8.47 2.77 15.36 6.01 19.01 9.62 15.36 15.22-236.84 7.4-270.71-1.02z" class="H"/><g style="mix-blend-mode:soft-light" class="K"><path d="M1712.08 1046.01c-12.45-.65-24.94.33-37.1 2.78-9.58 1.89-19.16 4.72-28.87 4.07-10.64-.7-20.96-5.74-28.03-13.74-3.47-3.93-6.16-8.47-9.9-12.12-4.54-4.35-10.5-7.13-16.7-7.87-1.53-.18-3.15-.23-4.54.47-1.66.83-2.68 2.59-3.65 4.16-7.26 11.33-20.45 18.6-33.86 18.64-4.35 0-8.93-.78-12.31-3.51-3.37-2.78-5.08-7.87-2.91-11.66 2.59-4.44 9.48-5.78 10.59-10.82-11.05-5.32-24.1-2.6-36.36-2.13-4.39.14-9.71-.65-11.42-4.67a10.94 10.94 0 0 1-.33-1.07c10.13-6.24 22.86-10.962 38.77-12.35 60.23-5.32 106.39 36.13 106.39 36.13s43.03 4.72 70.23 13.69z"/></g><path d="M3259.44 915.976c0 6.384-42.42 11.565-94.69 11.565s-94.69-5.181-94.69-11.565 42.42-11.565 94.69-11.565 94.69 5.181 94.69 11.565z" class="D E"/><path d="M3234.92 893.538v19.799s-117.31 6.338-150.62-3.192l38.08-7.124s3.28-11.102 9.66-22.805c3.33-5.968 7.45-12.12 12.4-16.977 5.04-4.95 10.92-8.512 17.58-9.345 8.23-.971 14.62.509 19.57 3.053 10.78 5.551 14.52 16.006 14.52 16.006s13.46-11.75 23.78-8.234c3.24 1.064 5.92 4.348 8.1 8.373 4.71 8.604 6.93 20.446 6.93 20.446z" class="H"/><g style="mix-blend-mode:multiply" class="I J"><path d="M3234.92 893.538v19.799s-117.31 6.338-150.62-3.192l38.08-7.124s3.28-11.102 9.66-22.805c1.39 2.683 3.29 5.134 5.56 7.17 7.4 6.569 18.59 8.511 27.8 4.764 1.57 3.979 3.37 8.235 6.89 10.733s9.3 2.313 11.33-1.481c.93-1.711.93-3.839 1.81-5.551 1.52-2.96 5.09-4.117 8.28-5.135 12.3-3.885 23.59-10.269 34.28-17.624 4.71 8.604 6.93 20.446 6.93 20.446z"/></g><g style="mix-blend-mode:soft-light" class="K"><path d="M3181.59 856.947c-2.5 4.395-5.32 8.605-8.93 12.12-3.38 3.285-7.64 5.968-12.35 6.292-8.1.555-13.74-5.135-15.87-12.12 5.04-4.95 10.92-8.512 17.58-9.345 8.23-.971 14.62.509 19.57 3.053z"/></g></g><defs><linearGradient id="A" x1="1608.64" y1="812.401" x2="1608.64" y2="479.891" xlink:href="#G"><stop stop-color="#ec9f68"/><stop offset="1" stop-color="#e67e35"/></linearGradient><linearGradient id="B" x1="3378.28" y1="764.245" x2="3372.13" y2="419.661" xlink:href="#G"><stop stop-color="#ffc67c"/><stop offset="1" stop-color="#e1973d"/></linearGradient><linearGradient id="C" x1="750.352" y1="811.199" x2="744.199" y2="466.615" xlink:href="#G"><stop stop-color="#ffc67c"/><stop offset="1" stop-color="#e1973d"/></linearGradient><linearGradient id="D" x1="1949.71" y1="789.781" x2="1943.56" y2="445.197" xlink:href="#G"><stop stop-color="#ffc67c"/><stop offset="1" stop-color="#e1973d"/></linearGradient><linearGradient id="E" x1="1952.99" y1="831.969" x2="1897.62" y2="1391.89" xlink:href="#G"><stop stop-color="#ffd57d"/><stop offset="1" stop-color="#fff7dc"/></linearGradient><linearGradient id="F" x1="1381.65" y1="775.441" x2="1326.28" y2="1335.41" xlink:href="#G"><stop stop-color="#ffd57d"/><stop offset="1" stop-color="#fff7dc"/></linearGradient><linearGradient id="G" gradientUnits="userSpaceOnUse"/></defs></svg>