<svg width="693" height="351" viewBox="0 0 693 351" fill="none" xmlns="http://www.w3.org/2000/svg">
<path d="M680.172 259.557C677.458 265.925 674.279 272.068 670.625 277.963L669.775 277.436C667.971 280.347 666.05 283.196 664.011 285.982C661.972 288.767 659.837 291.459 657.608 294.059L658.367 294.71C653.853 299.975 648.958 304.862 643.709 309.375L643.057 308.616C637.881 313.066 632.357 317.149 626.511 320.869L627.047 321.713C621.28 325.382 615.202 328.699 608.838 331.667L608.416 330.76C602.286 333.619 595.887 336.152 589.24 338.361L589.555 339.31C583.115 341.451 576.446 343.289 569.568 344.827L569.35 343.851C562.745 345.327 555.944 346.526 548.965 347.447L549.096 348.439C542.377 349.326 535.496 349.958 528.468 350.337L528.414 349.338C521.644 349.703 514.736 349.831 507.703 349.724L507.688 350.724C500.894 350.621 493.985 350.299 486.975 349.76L487.052 348.763C480.283 348.243 473.419 347.52 466.47 346.594L466.338 347.585C459.571 346.684 452.724 345.592 445.809 344.31L445.992 343.327C439.303 342.086 432.549 340.668 425.74 339.073L425.512 340.046C418.866 338.489 412.167 336.763 405.425 334.87L405.696 333.907C399.125 332.062 392.513 330.057 385.868 327.894L385.558 328.845C379.047 326.725 372.504 324.453 365.937 322.03L366.283 321.092C359.863 318.724 353.42 316.21 346.962 313.553L346.581 314.478C340.245 311.871 333.894 309.126 327.534 306.243L327.947 305.332C321.714 302.507 315.474 299.549 309.231 296.459L308.788 297.355C302.639 294.312 296.489 291.141 290.344 287.844L290.817 286.963C284.777 283.721 278.742 280.357 272.717 276.871L272.216 277.736C266.271 274.296 260.335 270.737 254.416 267.059L254.944 266.21C249.115 262.588 243.301 258.852 237.508 255.002L236.954 255.835C231.228 252.029 225.523 248.112 219.842 244.083L220.421 243.268C217.603 241.27 214.792 239.244 211.987 237.191C209.182 235.138 206.402 233.071 203.645 230.989L203.043 231.787C197.486 227.59 192.027 223.336 186.668 219.028L187.295 218.249C181.873 213.891 176.554 209.478 171.34 205.017L170.69 205.777C165.395 201.246 160.208 196.664 155.131 192.037L155.805 191.298C150.661 186.609 145.629 181.873 140.714 177.095L140.017 177.812C135.016 172.952 130.134 168.048 125.375 163.107L126.095 162.413C121.263 157.397 116.557 152.343 111.979 147.255L111.236 147.924C106.566 142.734 102.029 137.51 97.6283 132.258L98.3948 131.616C93.9095 126.263 89.5662 120.881 85.3678 115.478L84.5781 116.091C80.2836 110.564 76.1402 105.014 72.1511 99.4475L72.9639 98.865C68.893 93.1847 64.9833 87.488 61.2381 81.7827L60.4022 82.3314C56.5595 76.4775 52.8894 70.6141 49.3956 64.7494L50.2547 64.2376C46.6755 58.2295 43.2819 52.2206 40.0777 46.2196L39.1956 46.6906C35.8831 40.4869 32.7723 34.291 29.8675 28.1127L30.7725 27.6872C27.7897 21.3432 25.025 15.0186 22.4829 8.72399L21.5557 9.09845C18.923 2.57934 16.5279 -3.90858 14.3758 -10.3537L15.3243 -10.6704C13.0966 -17.3417 11.1304 -23.9657 9.43107 -30.5294L8.463 -30.2788C6.699 -37.0925 5.22129 -43.8427 4.03626 -50.5152L5.02086 -50.69C3.78988 -57.6211 2.8763 -64.4659 2.28695 -71.2083L1.29074 -71.1212C0.676991 -78.1425 0.413049 -85.0551 0.506911 -91.841L1.50681 -91.8271C1.6037 -98.831 2.08372 -105.697 2.95525 -112.404L1.96357 -112.533C2.86839 -119.496 4.19303 -126.292 5.94732 -132.899L6.91383 -132.642C8.6923 -139.34 10.9148 -145.84 13.5912 -152.118L12.6713 -152.51C15.3858 -158.878 18.5647 -165.021 22.2186 -170.916L23.0686 -170.389C24.8727 -173.3 26.7935 -176.149 28.8323 -178.935C30.8712 -181.72 33.0067 -184.413 35.2356 -187.012L34.4765 -187.663C38.9909 -192.928 43.8859 -197.815 49.1351 -202.328L49.787 -201.569C54.9625 -206.019 60.4862 -210.102 66.333 -213.822L65.7962 -214.666C71.5635 -218.335 77.6413 -221.652 84.0054 -224.62L84.428 -223.713C90.5578 -226.572 96.957 -229.105 103.604 -231.314L103.288 -232.263C109.728 -234.404 116.397 -236.242 123.276 -237.78L123.494 -236.804C130.099 -238.28 136.9 -239.479 143.879 -240.4L143.748 -241.392C150.466 -242.279 157.347 -242.911 164.375 -243.29L164.429 -242.291C171.199 -242.656 178.108 -242.784 185.141 -242.677L185.156 -243.677C191.95 -243.574 198.858 -243.252 205.868 -242.713L205.792 -241.716C212.56 -241.196 219.425 -240.473 226.374 -239.547L226.506 -240.538C233.273 -239.637 240.119 -238.545 247.034 -237.263L246.852 -236.28C253.541 -235.039 260.294 -233.621 267.103 -232.026L267.331 -232.999C273.978 -231.442 280.677 -229.716 287.418 -227.823L287.148 -226.86C293.718 -225.015 300.33 -223.01 306.976 -220.847L307.285 -221.798C313.797 -219.678 320.34 -217.406 326.907 -214.983L326.561 -214.045C332.98 -211.677 339.423 -209.163 345.882 -206.506L346.262 -207.431C352.599 -204.824 358.95 -202.079 365.309 -199.196L364.896 -198.285C371.129 -195.46 377.37 -192.502 383.612 -189.412L384.056 -190.308C390.205 -187.265 396.355 -184.094 402.5 -180.797L402.027 -179.916C408.067 -176.674 414.102 -173.31 420.127 -169.824L420.627 -170.689C426.573 -167.249 432.508 -163.69 438.428 -160.012L437.9 -159.163C443.729 -155.542 449.543 -151.805 455.336 -147.955L455.889 -148.788C461.615 -144.982 467.321 -141.065 473.001 -137.036L472.423 -136.221C475.241 -134.223 478.052 -132.197 480.857 -130.144C483.661 -128.091 486.442 -126.024 489.198 -123.942L489.801 -124.74C495.358 -120.543 500.817 -116.289 506.176 -111.981L505.549 -111.202C510.97 -106.844 516.289 -102.431 521.503 -97.9698L522.153 -98.7296C527.448 -94.1988 532.635 -89.6172 537.712 -84.9898L537.038 -84.2507C542.183 -79.5618 547.214 -74.8259 552.13 -70.0484L552.826 -70.7655C557.828 -65.9049 562.709 -61.0013 567.469 -56.0603L566.749 -55.3665C571.581 -50.3503 576.287 -45.2956 580.864 -40.2084L581.608 -40.8773C586.278 -35.687 590.815 -30.4628 595.215 -25.211L594.449 -24.5687C598.934 -19.2157 603.277 -13.8341 607.476 -8.43067L608.265 -9.04424C612.56 -3.51707 616.703 2.03318 620.692 7.59937L619.88 8.18189C623.951 13.8622 627.86 19.5589 631.605 25.2642L632.441 24.7155C636.284 30.5694 639.954 36.4328 643.448 42.2975L642.589 42.8093C646.168 48.8174 649.562 54.8263 652.766 60.8273L653.648 60.3563C656.96 66.56 660.071 72.7559 662.976 78.9342L662.071 79.3597C665.054 85.7037 667.819 92.0283 670.361 98.3229L671.288 97.9485C673.921 104.468 676.316 110.956 678.468 117.401L677.519 117.717C679.747 124.389 681.713 131.013 683.413 137.576L684.381 137.326C686.145 144.139 687.622 150.89 688.807 157.562L687.823 157.737C689.054 164.668 689.967 171.513 690.557 178.255L691.553 178.168C692.167 185.189 692.431 192.102 692.337 198.888L691.337 198.874C691.24 205.878 690.76 212.744 689.888 219.451L690.88 219.58C689.975 226.543 688.651 233.339 686.896 239.946L685.93 239.689C684.151 246.387 681.929 252.887 679.252 259.165L680.172 259.557Z" stroke="#FABC04" stroke-opacity="0.47" stroke-width="2" stroke-dasharray="20 20"/>
</svg>
