<svg width="35" height="32" viewBox="0 0 35 32" fill="none" xmlns="http://www.w3.org/2000/svg">
<path d="M11.9096 4.02668C12.2479 3.13866 12.7131 2.32112 13.4037 1.65863C16.1665 -1.03362 20.7334 -0.35703 22.6081 3.0259C24.0177 5.59129 25.5118 8.10029 26.9636 10.6375C29.3881 14.8521 31.8407 19.0666 34.237 23.2953C36.2526 26.8333 34.0678 31.3016 30.0647 31.9077C27.612 32.2741 25.3145 31.1465 24.0459 28.9476C21.9174 25.2405 19.7749 21.5333 17.6465 17.8403C17.6042 17.7557 17.5478 17.6853 17.4914 17.6148C17.2659 17.4315 17.1672 17.1637 17.0263 16.9241C16.0819 15.2608 15.1093 13.6117 14.1649 11.9625C13.5588 10.8912 12.9245 9.83405 12.3184 8.76278C11.7687 7.80429 11.5149 6.76122 11.5431 5.66177C11.5854 5.09794 11.6559 4.53412 11.9096 4.02668Z" fill="#505050"/>
<path d="M11.9094 4.02734C11.7825 4.53478 11.6698 5.04222 11.6416 5.57785C11.5993 6.76188 11.8953 7.86133 12.4873 8.89031C14.0378 11.5544 15.5883 14.2325 17.1247 16.9107C17.2657 17.1503 17.3785 17.3899 17.5194 17.6154C16.6737 19.0814 15.8279 20.5332 14.9681 21.9992C13.7841 24.043 12.6001 26.101 11.4019 28.1448C11.3456 28.1448 11.3315 28.1166 11.3174 28.0743C11.3033 27.9616 11.3456 27.8629 11.3738 27.7501C11.9517 25.6358 11.4724 23.7611 10.0206 22.1542C9.13256 21.1816 8.00492 20.6319 6.70813 20.4486C5.01666 20.209 3.52253 20.646 2.18346 21.7032C1.94383 21.8864 1.78878 22.1542 1.50687 22.2952C1.45049 22.2952 1.4223 22.267 1.4082 22.2247C2.08479 21.0548 2.74728 19.8848 3.42387 18.7149C6.21478 13.866 9.0057 9.01717 11.8107 4.18239C11.8389 4.12601 11.8812 4.08373 11.9094 4.02734Z" fill="#1E1E1E"/>
<path d="M1.46562 22.2654C1.73344 22.0257 1.98716 21.772 2.26907 21.5465C5.69429 18.8401 10.8392 20.7994 11.5862 25.0845C11.7695 26.1134 11.6708 27.1001 11.3607 28.0868C11.3466 28.1714 11.3325 28.2419 11.3043 28.3264C11.1775 28.552 11.0647 28.7916 10.9237 29.0171C9.66923 31.0892 7.82271 32.1181 5.39828 31.9631C2.62146 31.7657 0.43665 29.6796 0.0560701 26.9169C-0.127172 25.5778 0.140643 24.3233 0.831325 23.1675C0.97228 22.9137 1.14143 22.6882 1.29648 22.4345C1.36696 22.3781 1.33876 22.2654 1.46562 22.2654Z" fill="#505050"/>
<path d="M1.46584 22.2654C1.40945 22.3217 1.40945 22.4204 1.31078 22.4345C1.29669 22.3358 1.35307 22.2795 1.40945 22.209L1.46584 22.2654Z" fill="#505050"/>
<path d="M11.3046 28.3275C11.2482 28.2288 11.3046 28.1584 11.361 28.0879C11.3751 28.102 11.4033 28.1302 11.4174 28.1443L11.3046 28.3275Z" fill="#E1C025"/>
</svg>
