<svg width="35" height="34" viewBox="0 0 35 34" fill="none" xmlns="http://www.w3.org/2000/svg">
<path fill-rule="evenodd" clip-rule="evenodd" d="M18.9821 22.0917L18.1625 23.9346H18.1113L19.1865 33.3145H27.3708V31.8297C28.0369 32.034 28.548 32.5975 28.9057 33.3145H34.9929V32.4442C35.2993 25.473 24.3536 22.3984 18.9821 22.0917Z" fill="#F8F8F8"/>
<path fill-rule="evenodd" clip-rule="evenodd" d="M17.8055 19.4238C21.4888 19.4238 24.4565 14.5047 24.4565 10.3025C24.4565 6.04714 21.4888 2.66369 17.8055 2.66369C14.1221 2.66369 11.1562 6.04714 11.1562 10.3025C11.1562 14.5047 14.1221 19.4238 17.8055 19.4238Z" fill="#F8F8F8"/>
<path fill-rule="evenodd" clip-rule="evenodd" d="M34.6864 7.27883C34.6864 3.28035 31.4121 -0.000151426 27.3711 -0.000151426C25.1715 -0.000151426 23.1255 1.02613 21.7949 2.61544C22.8701 3.33235 23.7901 4.30503 24.4561 5.4332C24.5583 5.38226 24.6606 5.38226 24.763 5.38226H30.0322C30.441 5.38226 30.7987 5.74045 30.7987 6.20105C30.7987 6.66219 30.441 7.02252 30.0322 7.02252H25.1715C25.325 7.43218 25.4272 7.79036 25.5294 8.20056H30.0322C30.441 8.20056 30.7987 8.55874 30.7987 8.97C30.7987 9.43114 30.441 9.78933 30.0322 9.78933H25.7338C25.7338 9.99416 25.7338 10.0966 25.7338 10.303C25.7338 11.5829 25.4784 12.917 25.0695 14.1455C24.967 14.3497 24.9162 14.6082 24.8138 14.8125L25.6826 14.4034C26.2978 14.5052 26.8088 14.6082 27.3711 14.6082C31.4121 14.6082 34.6864 11.3277 34.6864 7.27883Z" fill="#F8F8F8"/>
<path fill-rule="evenodd" clip-rule="evenodd" d="M16.2197 33.3145L17.2946 23.9346H17.2434L16.4256 22.0381C10.5413 22.3984 -0.251189 24.295 0.00446181 32.0855V33.3145H6.09138C6.55131 32.5975 7.16611 32.0855 8.03534 31.8297V33.3145H16.2197Z" fill="#F8F8F8"/>
</svg>
